HIERARCHY
ROOT Hips
{
	OFFSET 0.00000 0.00000 0.00000
	CHANNELS 6 Xposition Yposition Zposition Zrotation Yrotation Xrotation 
	JOINT LHipJoint
	{
		OFFSET 0 0 0
		CHANNELS 3 Zrotation Yrotation Xrotation
		JOINT LeftUpLeg
		{
			OFFSET 1.62067 -1.77917 0.70989
			CHANNELS 3 Zrotation Yrotation Xrotation
			JOINT LeftLeg
			{
				OFFSET 2.34532 -6.44371 0.00000
				CHANNELS 3 Zrotation Yrotation Xrotation
				JOINT LeftFoot
				{
					OFFSET 2.74224 -7.53425 0.00000
					CHANNELS 3 Zrotation Yrotation Xrotation
					JOINT LeftToeBase
					{
						OFFSET 0.17032 -0.46794 2.08086
						CHANNELS 3 Zrotation Yrotation Xrotation
						End Site
						{
							OFFSET 0.00000 -0.00000 1.07476
						}
					}
				}
			}
		}
	}
	JOINT RHipJoint
	{
		OFFSET 0 0 0
		CHANNELS 3 Zrotation Yrotation Xrotation
		JOINT RightUpLeg
		{
			OFFSET -1.55811 -1.77917 0.70989
			CHANNELS 3 Zrotation Yrotation Xrotation
			JOINT RightLeg
			{
				OFFSET -2.33243 -6.40830 0.00000
				CHANNELS 3 Zrotation Yrotation Xrotation
				JOINT RightFoot
				{
					OFFSET -2.78798 -7.65993 0.00000
					CHANNELS 3 Zrotation Yrotation Xrotation
					JOINT RightToeBase
					{
						OFFSET -0.22707 -0.62388 2.04059
						CHANNELS 3 Zrotation Yrotation Xrotation
						End Site
						{
							OFFSET -0.00000 -0.00000 1.07030
						}
					}
				}
			}
		}
	}
	JOINT LowerBack
	{
		OFFSET 0 0 0
		CHANNELS 3 Zrotation Yrotation Xrotation
		JOINT Spine
		{
			OFFSET 0.02203 1.91565 0.07161
			CHANNELS 3 Zrotation Yrotation Xrotation
			JOINT Spine1
			{
				OFFSET 0.01740 1.90525 0.11636
				CHANNELS 3 Zrotation Yrotation Xrotation
				JOINT Neck
				{
					OFFSET 0 0 0
					CHANNELS 3 Zrotation Yrotation Xrotation
					JOINT Neck1
					{
						OFFSET -0.10841 1.83566 0.05067
						CHANNELS 3 Zrotation Yrotation Xrotation
						JOINT Head
						{
							OFFSET 0.06601 1.74760 -0.50505
							CHANNELS 3 Zrotation Yrotation Xrotation
							End Site
							{
								OFFSET 0.03102 1.85215 -0.17697
							}
						}
					}
				}
				JOINT LeftShoulder
				{
					OFFSET 0 0 0
					CHANNELS 3 Zrotation Yrotation Xrotation
					JOINT LeftArm
					{
						OFFSET 2.87059 1.35470 0.16111
						CHANNELS 3 Zrotation Yrotation Xrotation
						JOINT LeftForeArm
						{
							OFFSET 5.43592 -0.00000 0.00000
							CHANNELS 3 Zrotation Yrotation Xrotation
							JOINT LeftHand
							{
								OFFSET 3.25460 -0.00000 0.00000
								CHANNELS 3 Zrotation Yrotation Xrotation
								JOINT LeftFingerBase
								{
									OFFSET 0 0 0
									CHANNELS 3 Zrotation Yrotation Xrotation
									JOINT LeftHandIndex1
									{
										OFFSET 0.49824 -0.00000 0.00000
										CHANNELS 3 Zrotation Yrotation Xrotation
										End Site
										{
											OFFSET 0.40170 -0.00000 0.00000
										}
									}
								}
								JOINT LThumb
								{
									OFFSET 0 0 0
									CHANNELS 3 Zrotation Yrotation Xrotation
									End Site
									{
										OFFSET 0.40783 -0.00000 0.40783
									}
								}
							}
						}
					}
				}
				JOINT RightShoulder
				{
					OFFSET 0 0 0
					CHANNELS 3 Zrotation Yrotation Xrotation
					JOINT RightArm
					{
						OFFSET -2.86643 1.23488 0.45957
						CHANNELS 3 Zrotation Yrotation Xrotation
						JOINT RightForeArm
						{
							OFFSET -5.33830 -0.00000 0.00000
							CHANNELS 3 Zrotation Yrotation Xrotation
							JOINT RightHand
							{
								OFFSET -3.23148 -0.00000 0.00000
								CHANNELS 3 Zrotation Yrotation Xrotation
								JOINT RightFingerBase
								{
									OFFSET 0 0 0
									CHANNELS 3 Zrotation Yrotation Xrotation
									JOINT RightHandIndex1
									{
										OFFSET -0.46364 -0.00000 0.00000
										CHANNELS 3 Zrotation Yrotation Xrotation
										End Site
										{
											OFFSET -0.37380 -0.00000 0.00000
										}
									}
								}
								JOINT RThumb
								{
									OFFSET 0 0 0
									CHANNELS 3 Zrotation Yrotation Xrotation
									End Site
									{
										OFFSET -0.37951 -0.00000 0.37951
									}
								}
							}
						}
					}
				}
			}
		}
	}
}
MOTION
Frames: 7
Frame Time: .0083333
0.4276 23.5650 5.5955 -18.7704 -26.8222 31.3382 0.0000 0.0000 0.0000 17.3357 7.2956 -85.7785 3.7514 11.8221 35.1054 1.0993 17.3441 20.8816 0.2628 -3.2980 -9.1094 0.0000 0.0000 0.0000 13.9996 -6.3598 12.1137 -4.1854 -12.4031 37.1733 -5.3299 -16.6010 42.3017 -0.0841 -1.8705 5.1478 11.1148 10.5143 -12.4948 1.7708 12.8028 -10.2419 -2.6201 5.9061 -2.2069 -3.3728 -1.9115 -12.6871 3.9733 -2.9800 24.9275 1.6019 -1.2493 10.1347 0.0000 -0.0000 0.0000 -14.0346 28.3550 -11.1316 21.4259 -32.3222 -6.2761 -0.0000 0.0000 -16.5685 41.1620 -18.2195 -15.2881 -7.1250 0.0000 -0.0000 8.3067 6.5704 -7.3816 0.0000 -0.0000 0.0000 18.3288 16.2617 12.0425 -16.7859 26.5746 -3.9911 0.0000 0.0000 1.5200 -27.7824 -42.9874 19.7595 7.1250 -0.0000 -0.0000 18.7877 -75.8294 -13.7182
0.4322 23.5307 6.0332 -19.2380 -26.8861 30.8338 0.0000 0.0000 0.0000 17.8584 6.7892 -83.2249 3.4954 11.4569 33.8366 0.9905 19.3523 20.9514 0.1544 -2.5320 -6.9783 0.0000 0.0000 0.0000 13.2335 -6.8329 12.3602 -4.6809 -13.0152 39.4254 -5.3632 -16.9558 42.4578 -0.0719 -1.7300 4.7600 11.7806 10.5945 -11.7688 2.0978 12.9673 -10.2600 -2.7201 5.9437 -2.5477 -3.3753 -1.9295 -12.4102 3.5932 -2.9262 25.3006 1.4792 -1.2707 10.2081 -0.0000 0.0000 0.0000 -15.0975 30.2828 -12.1376 21.1936 -32.0536 -6.1524 -0.0000 0.0000 -18.2438 38.4007 -23.8706 -17.7835 -7.1250 0.0000 -0.0000 5.4868 0.6463 -5.4496 -0.0000 0.0000 0.0000 18.5229 14.1767 10.6293 -16.4047 26.0663 -3.8221 0.0000 0.0000 1.4643 -27.5769 -46.8322 20.8530 7.1250 -0.0000 -0.0000 30.0054 -78.9047 -23.9911
0.4352 23.4746 6.4667 -19.9929 -26.6448 30.5521 0.0000 0.0000 0.0000 18.5144 6.3087 -80.9456 3.2492 11.0879 32.5768 0.7429 21.6825 20.4440 0.0465 -1.3914 -3.8263 0.0000 0.0000 0.0000 13.0201 -7.2162 12.4186 -5.2441 -13.6535 41.8667 -5.3507 -18.2937 42.4963 -0.1231 -2.2622 6.2308 12.7754 10.6357 -11.1362 2.4871 13.0575 -10.3808 -2.9245 5.9187 -2.9228 -3.4190 -1.9302 -11.8002 3.2788 -2.8616 25.5590 1.3892 -1.2878 10.1768 0.0000 0.0000 0.0000 -16.0259 32.3151 -13.3556 20.9839 -31.8095 -6.0414 -0.0000 0.0000 -20.7191 39.7051 -22.1303 -17.3702 -7.1250 0.0000 -0.0000 6.6250 2.2808 -6.3995 0.0000 0.0000 0.0000 18.9020 12.2192 9.2892 -15.9701 25.4801 -3.6331 0.0000 0.0000 1.1308 -28.3974 -50.2285 22.5646 7.1250 -0.0000 -0.0000 44.9198 -81.4403 -38.5323
0.4363 23.4058 6.9019 -20.9701 -26.3568 30.4231 0.0000 0.0000 0.0000 18.8322 6.0379 -78.8165 3.0175 10.7234 31.3525 0.9565 21.2829 21.5960 0.1016 -2.0558 -5.6600 0.0000 0.0000 0.0000 13.1321 -7.3766 12.3518 -5.8735 -14.3046 44.4719 -5.1767 -20.8422 42.0472 -0.2603 -3.2826 9.0664 14.1511 10.7924 -10.9170 2.8051 13.1772 -10.2852 -3.2763 5.9198 -2.7553 -3.4741 -1.8608 -11.3135 3.2757 -2.7678 25.6411 1.4128 -1.2553 10.1090 -0.0000 -0.0000 0.0000 -17.0138 34.0586 -14.4433 20.8112 -31.6073 -5.9507 -0.0000 0.0000 -21.6214 40.7484 -19.6884 -16.1869 -7.1250 0.0000 -0.0000 7.7569 4.8941 -7.1340 -0.0000 -0.0000 0.0000 19.3028 10.2830 7.9073 -15.5873 24.9579 -3.4700 0.0000 0.0000 0.3817 -27.2690 -48.2833 21.0446 7.1250 -0.0000 -0.0000 36.1927 -79.7927 -29.7183
0.4339 23.3290 7.3420 -21.8532 -26.1502 30.1705 0.0000 0.0000 0.0000 18.7334 5.8116 -76.7064 2.8213 10.4000 30.2821 1.5989 17.9918 24.2760 0.4381 -4.2471 -11.7730 0.0000 0.0000 0.0000 13.1737 -7.4379 12.3195 -6.5541 -14.9446 47.1668 -4.9938 -22.8482 41.5982 -0.4140 -4.1301 11.4429 15.4965 10.9853 -10.8727 3.0447 13.2878 -9.9890 -3.6324 5.9475 -2.2596 -3.5867 -1.8308 -11.0900 3.5306 -2.7783 25.7410 1.5232 -1.2442 10.1073 -0.0000 -0.0000 0.0000 -18.1077 35.2513 -16.7144 20.2600 -30.9543 -5.6645 -0.0000 0.0000 -21.4651 40.5322 -19.9693 -16.2786 -7.1250 0.0000 -0.0000 7.5681 4.6179 -6.9968 -0.0000 -0.0000 0.0000 19.6692 8.4023 6.3659 -15.2710 24.5222 -3.3376 0.0000 -0.0000 -0.1169 -26.2104 -44.3768 18.9982 7.1250 -0.0000 -0.0000 24.3823 -76.4146 -18.1855
0.4311 23.2365 7.7824 -22.7332 -25.7750 29.8547 0.0000 0.0000 0.0000 18.6581 5.5471 -74.7236 2.6680 10.1372 29.4221 1.7335 17.6250 24.9757 0.4183 -4.1513 -11.5026 0.0000 0.0000 0.0000 13.3262 -7.6362 12.2768 -7.2733 -15.5578 49.9006 -5.2028 -22.2092 42.3386 -0.3496 -3.7991 10.5120 16.8645 11.0649 -10.6967 3.3335 13.2832 -9.7717 -3.9986 5.9076 -1.9508 -3.7343 -1.7941 -10.8007 3.7828 -2.7778 25.9366 1.6412 -1.2329 10.1275 -0.0000 -0.0000 0.0000 -19.2083 36.4197 -19.1580 19.6891 -30.2660 -5.3738 -0.0000 0.0000 -21.0065 40.2967 -20.4027 -16.4684 -7.1250 0.0000 -0.0000 7.3369 4.1649 -6.8421 -0.0000 -0.0000 0.0000 20.1263 6.6147 4.8610 -15.0544 24.2218 -3.2482 0.0000 0.0000 0.2625 -30.3715 -46.3918 22.9928 7.1250 -0.0000 -0.0000 24.2904 -79.7455 -19.7354
0.4274 23.1336 8.2211 -23.3413 -25.4422 29.3789 0.0000 0.0000 0.0000 18.3729 5.1458 -72.5620 2.5428 9.9152 28.7027 1.1159 21.8763 22.8371 0.0447 -1.3642 -3.7514 0.0000 0.0000 0.0000 13.2470 -7.8649 12.2769 -8.0252 -16.1378 52.6534 -5.4672 -21.8671 43.3438 -0.3446 -3.7721 10.4363 17.9942 11.0867 -10.3446 3.5536 13.2912 -9.7352 -4.3689 5.8572 -1.9628 -3.8812 -1.7641 -10.1724 3.9370 -2.7743 26.1426 1.7270 -1.2357 10.0840 -0.0000 -0.0000 0.0000 -20.0816 37.4860 -21.4292 19.0974 -29.5395 -5.0788 -0.0000 0.0000 -20.2465 40.0063 -20.9283 -16.6883 -7.1250 0.0000 -0.0000 7.0538 3.6211 -6.6456 -0.0000 -0.0000 0.0000 20.6826 4.4457 4.7368 -15.2799 24.5346 -3.3413 0.0000 -0.0000 -0.3881 -35.4481 -55.0484 30.2645 7.1250 -0.0000 -0.0000 90.0133 85.1172 94.9139
